<svg fill="white" height="30px" width="30px" version="1.1" id="Layer_1" xmlns="http://www.w3.org/2000/svg" xmlns:xlink="http://www.w3.org/1999/xlink" 
	 viewBox="0 0 512 512" xml:space="preserve">
<g>
	<g>
		<path d="M436.177,354.264l-26.567-37.676c-11.39-16.154-17.41-35.138-17.41-54.904v-80.141
			c0-60.297-39.389-111.559-93.785-129.429v-9.696C298.415,19.028,279.387,0,256,0c-23.389,0-42.416,19.028-42.416,42.416v9.696
			c-54.394,17.871-93.784,69.133-93.784,129.429v80.141c0,19.766-6.02,38.751-17.41,54.904l-26.567,37.676
			c-14.264,20.228-16.046,46.444-4.654,68.417c11.393,21.974,33.846,35.625,58.597,35.625h69.031C200.68,488.229,225.61,512,256,512
			c30.39,0,55.319-23.771,57.203-53.695h69.031c24.753,0,47.205-13.651,58.597-35.625
			C452.224,400.708,450.441,374.492,436.177,354.264z M233.982,42.416c0-12.14,9.878-22.018,22.018-22.018
			c12.14,0,22.017,9.878,22.017,22.018v4.714c-7.169-1.17-14.522-1.789-22.017-1.789c-7.495,0-14.848,0.618-22.018,1.789V42.416z
			 M256,491.602c-19.138,0-34.922-14.632-36.755-33.296h73.51C290.922,476.97,275.137,491.602,256,491.602z M422.723,413.292
			c-7.991,15.412-23.128,24.615-40.489,24.615H129.765c-17.361,0-32.498-9.202-40.489-24.615
			c-7.991-15.413-6.788-33.085,3.217-47.274l23.269-33h156.941c5.632,0,10.199-4.567,10.199-10.199
			c0-5.632-4.567-10.199-10.199-10.199H128.389c3.918-7.964,6.887-16.322,8.867-24.943h153.345c5.632,0,10.199-4.567,10.199-10.199
			s-4.567-10.199-10.199-10.199H140.049c0.089-1.859,0.149-3.724,0.149-5.595v-80.141c0-63.172,50.846-114.692,113.762-115.784
			c0.678-0.011,1.359-0.017,2.04-0.017c63.853,0,115.802,51.949,115.802,115.802v80.141c0,23.997,7.31,47.048,21.138,66.659
			l26.567,37.676C429.511,380.206,430.714,397.878,422.723,413.292z"/>
	</g>
</g>
<g>
	<g>
		<path d="M316.853,312.621h-3.58c-5.632,0-10.199,4.567-10.199,10.199c0,5.632,4.567,10.199,10.199,10.199h3.58
			c5.632,0,10.199-4.567,10.199-10.199C327.052,317.188,322.486,312.621,316.853,312.621z"/>
	</g>
</g>
</svg>