<svg xmlns="http://www.w3.org/2000/svg" version="1.1" xmlns:xlink="http://www.w3.org/1999/xlink" xmlns:svgjs="http://svgjs.dev/svgjs" width="1500" height="401" viewBox="0 0 1500 401"><g transform="matrix(1,0,0,1,-0.9090909090909918,-0.16646425538505127)"><svg viewBox="0 0 396 106" data-background-color="#21232b" preserveAspectRatio="xMidYMid meet" height="401" width="1500" xmlns="http://www.w3.org/2000/svg" xmlns:xlink="http://www.w3.org/1999/xlink"><g id="tight-bounds" transform="matrix(1,0,0,1,0.2400000000000091,0.04400302012672341)"><svg viewBox="0 0 395.52 105.91199395974655" height="105.91199395974655" width="395.52"><g><svg viewBox="0 0 573.9653398575712 153.695928418535" height="105.91199395974655" width="395.52"><g transform="matrix(1,0,0,1,178.44533985757116,50.63880758276148)"><svg viewBox="0 0 395.52 52.418313253012045" height="52.418313253012045" width="395.52"><g id="textblocktransform"><svg viewBox="0 0 395.52 52.418313253012045" height="52.418313253012045" width="395.52" id="textblock"><g><svg viewBox="0 0 395.52 52.418313253012045" height="52.418313253012045" width="395.52"><g transform="matrix(1,0,0,1,0,0)"><svg width="395.52" viewBox="3.7 -36.25 280.63 36.85" height="52.418313253012045" data-palette-color="url(#4760314a-78da-4d42-b66e-ed22601b5ef3)"><g class="wordmark-text-0" data-fill-palette-color="primary" id="text-0"></g></svg></g></svg></g></svg></g></svg></g><g><svg viewBox="0 0 153.695928418535 153.695928418535" height="153.695928418535" width="153.695928418535"><g><svg></svg></g><g id="icon-0"><svg viewBox="0 0 153.695928418535 153.695928418535" height="153.695928418535" width="153.695928418535"><g></g><g transform="matrix(1,0,0,1,40.67181193900772,36.56686111418708)"><svg viewBox="0 0 72.35230454051957 80.56220619016085" height="80.56220619016085" width="72.35230454051957"><g><svg xmlns="http://www.w3.org/2000/svg" xmlns:xlink="http://www.w3.org/1999/xlink" version="1.1" x="0" y="0" viewBox="7.871999999999998 3.5067500000000007 74.25500000000001 82.68080275591228" enable-background="new 0 0 90 90" xml:space="preserve" height="80.56220619016085" width="72.35230454051957" class="icon-cg-0" data-fill-palette-color="accent" id="cg-0"></svg></g></svg></g></svg></g></svg></g></svg></g><defs></defs><mask id="11c833a1-e379-45ed-8708-83d5b935b508"><g id="SvgjsG1717"><svg viewBox="0 0 395.52 105.91199395974655" height="105.91199395974655" width="395.52"><g><svg viewBox="0 0 573.9653398575712 153.695928418535" height="105.91199395974655" width="395.52"><g transform="matrix(1,0,0,1,178.44533985757116,50.63880758276148)"><svg viewBox="0 0 395.52 52.418313253012045" height="52.418313253012045" width="395.52"><g id="SvgjsG1716"><svg viewBox="0 0 395.52 52.418313253012045" height="52.418313253012045" width="395.52" id="SvgjsSvg1715"><g><svg viewBox="0 0 395.52 52.418313253012045" height="52.418313253012045" width="395.52"><g transform="matrix(1,0,0,1,0,0)"><svg width="395.52" viewBox="3.7 -36.25 280.63 36.85" height="52.418313253012045" data-palette-color="url(#4760314a-78da-4d42-b66e-ed22601b5ef3)"><g class="wordmark-text-0" data-fill-palette-color="primary" id="SvgjsG1714"><path d="M3.7 0L3.7-34.4 33.45-34.4 33.45-26.15 14.75-26.15 14.75-21.4 30.75-21.4 30.75-13.5 14.75-13.5 14.75-8.25 33.8-8.25 33.8 0 3.7 0ZM52.75-27Q59.25-27 63.27-24.23 67.3-21.45 67.3-15.75L67.3-15.75 57.65-15.75Q57.65-20.25 52.75-20.25L52.75-20.25Q47.85-20.25 47.85-14.6L47.85-14.6 47.85-11.75Q47.85-6.15 52.95-6.15L52.95-6.15Q58.05-6.15 58.05-10.75L58.05-10.75 67.3-10.75Q67.3-5 63.27-2.2 59.25 0.6 52.75 0.6L52.75 0.6Q45.8 0.6 41.85-2.9 37.9-6.4 37.9-13.2L37.9-13.2Q37.9-20 41.85-23.5 45.8-27 52.75-27L52.75-27ZM82.4-23.65Q84-25.25 86.15-26.13 88.3-27 90.65-27L90.65-27Q95.25-27 97.55-24.45 99.85-21.9 99.85-17.1L99.85-17.1 99.85 0 89.9 0 89.9-15.9Q89.9-17.6 89.02-18.63 88.15-19.65 86.55-19.65L86.55-19.65Q84.7-19.65 83.55-18.45 82.4-17.25 82.4-15.5L82.4-15.5 82.4 0 72.45 0 72.45-36.25 82.4-36.25 82.4-23.65ZM119.44-27Q126.39-27 130.37-23.48 134.34-19.95 134.34-13.2L134.34-13.2Q134.34-6.45 130.37-2.93 126.39 0.6 119.44 0.6L119.44 0.6Q112.49 0.6 108.54-2.9 104.59-6.4 104.59-13.2L104.59-13.2Q104.59-20 108.54-23.5 112.49-27 119.44-27L119.44-27ZM119.44-20.25Q114.54-20.25 114.54-14.6L114.54-14.6 114.54-11.75Q114.54-6.15 119.44-6.15L119.44-6.15Q124.39-6.15 124.39-11.75L124.39-11.75 124.39-14.6Q124.39-20.25 119.44-20.25L119.44-20.25ZM156.59 0L146.14 0 136.14-26.4 146.84-26.4 151.69-9.95 152.04-9.95 156.89-26.4 166.69-26.4 156.59 0ZM183.34-27Q190.59-27 194.41-23.6 198.24-20.2 198.24-13.2L198.24-13.2 198.24-11.5 178.44-11.5Q178.44-8.65 179.71-7.2 180.99-5.75 183.74-5.75L183.74-5.75Q186.24-5.75 187.41-6.8 188.59-7.85 188.59-9.6L188.59-9.6 198.24-9.6Q198.24-4.8 194.59-2.1 190.94 0.6 183.94 0.6L183.94 0.6Q176.59 0.6 172.54-2.83 168.49-6.25 168.49-13.2L168.49-13.2Q168.49-20 172.44-23.5 176.39-27 183.34-27L183.34-27ZM183.74-20.65Q179.04-20.65 178.49-16.2L178.49-16.2 188.19-16.2Q188.19-18.25 187.01-19.45 185.84-20.65 183.74-20.65L183.74-20.65ZM219.09-27.05Q220.24-27.05 221.14-26.78 222.04-26.5 222.04-26.45L222.04-26.45 222.04-18.1 218.84-18.1Q215.74-18.1 214.36-16.5 212.99-14.9 212.99-11.75L212.99-11.75 212.99 0 203.04 0 203.04-26.4 211.19-26.4 211.84-22.4Q212.74-24.7 214.69-25.88 216.64-27.05 219.09-27.05L219.09-27.05ZM237.78-27Q243.08-27 246.76-24.93 250.43-22.85 250.43-18.5L250.43-18.5 241.18-18.5Q241.18-19.95 239.88-20.55L239.88-20.55Q238.98-21.05 237.63-21.05L237.63-21.05Q234.03-21.05 234.03-19.35L234.03-19.35Q234.03-18.4 235.28-18 236.53-17.6 239.38-17.15L239.38-17.15Q242.88-16.65 245.23-15.98 247.58-15.3 249.33-13.58 251.08-11.85 251.08-8.75L251.08-8.75Q251.08-3.7 247.31-1.55 243.53 0.6 237.43 0.6L237.43 0.6Q233.93 0.6 230.83-0.38 227.73-1.35 225.78-3.4 223.83-5.45 223.83-8.6L223.83-8.6 233.08-8.6 233.08-8.4Q233.13-6.7 234.51-6.03 235.88-5.35 237.43-5.35L237.43-5.35Q241.58-5.35 241.58-7.3L241.58-7.3Q241.58-8.3 240.28-8.75 238.98-9.2 236.03-9.7L236.03-9.7Q232.48-10.3 230.21-11 227.93-11.7 226.23-13.38 224.53-15.05 224.53-18.05L224.53-18.05Q224.53-22.9 228.21-24.95 231.88-27 237.78-27L237.78-27ZM269.43-27Q276.68-27 280.51-23.6 284.33-20.2 284.33-13.2L284.33-13.2 284.33-11.5 264.53-11.5Q264.53-8.65 265.81-7.2 267.08-5.75 269.83-5.75L269.83-5.75Q272.33-5.75 273.51-6.8 274.68-7.85 274.68-9.6L274.68-9.6 284.33-9.6Q284.33-4.8 280.68-2.1 277.03 0.6 270.03 0.6L270.03 0.6Q262.68 0.6 258.63-2.83 254.58-6.25 254.58-13.2L254.58-13.2Q254.58-20 258.53-23.5 262.48-27 269.43-27L269.43-27ZM269.83-20.65Q265.13-20.65 264.58-16.2L264.58-16.2 274.28-16.2Q274.28-18.25 273.11-19.45 271.93-20.65 269.83-20.65L269.83-20.65Z" fill="white"></path></g></svg></g></svg></g></svg></g></svg></g><g><svg viewBox="0 0 153.695928418535 153.695928418535" height="153.695928418535" width="153.695928418535"><g><svg></svg></g><g id="SvgjsG1713"><svg viewBox="0 0 153.695928418535 153.695928418535" height="153.695928418535" width="153.695928418535"><g><path d="M0 76.848c0-42.442 34.406-76.848 76.848-76.848 42.442 0 76.848 34.406 76.848 76.848 0 42.442-34.406 76.848-76.848 76.848-42.442 0-76.848-34.406-76.848-76.848zM76.848 148.969c39.831 0 72.121-32.29 72.121-72.121 0-39.831-32.29-72.121-72.121-72.121-39.831 0-72.121 32.29-72.121 72.121 0 39.831 32.29 72.121 72.121 72.121z" fill="black" stroke="transparent"></path></g><g transform="matrix(1,0,0,1,40.67181193900772,36.56686111418708)"><svg viewBox="0 0 72.35230454051957 80.56220619016085" height="80.56220619016085" width="72.35230454051957"><g><svg xmlns="http://www.w3.org/2000/svg" xmlns:xlink="http://www.w3.org/1999/xlink" version="1.1" x="0" y="0" viewBox="7.871999999999998 3.5067500000000007 74.25500000000001 82.68080275591228" enable-background="new 0 0 90 90" xml:space="preserve" height="80.56220619016085" width="72.35230454051957" class="icon-cg-0" data-fill-palette-color="accent" id="SvgjsSvg1712"><g fill="black"><g fill="black"><path fill="black" d="M42.033 42.164c1.632 0.946 4.301 0.946 5.933-0.001l29.815-17.302c1.632-0.947 1.63-2.493-0.004-3.437L47.97 4.214c-1.633-0.943-4.306-0.943-5.94 0L12.214 21.429c-1.634 0.943-1.635 2.489-0.003 3.436L42.033 42.164z"></path></g><g fill="black"><path fill="black" d="M43.714 49.542c0-1.887-1.335-4.204-2.967-5.151l-29.908-17.35c-1.632-0.947-2.967-0.178-2.967 1.708v34.628c0 1.887 1.336 4.201 2.97 5.145l29.901 17.263c1.634 0.943 2.97 0.172 2.97-1.715V49.542z"></path></g><g fill="black"><path fill="black" d="M49.253 44.391c-1.632 0.947-2.967 3.265-2.967 5.151V84.07c0 1.887 1.337 2.658 2.971 1.715l29.899-17.263c1.634-0.943 2.971-3.258 2.971-5.145V28.742c0-1.886-1.335-2.655-2.967-1.708L49.253 44.391z"></path></g></g></svg></g></svg></g></svg></g></svg></g></svg></g><defs><mask></mask></defs></svg><rect width="395.52" height="105.91199395974655" fill="black" stroke="none" visibility="hidden"></rect></g></mask><linearGradient x1="0" x2="1" y1="0.578" y2="0.595" id="4760314a-78da-4d42-b66e-ed22601b5ef3"><stop stop-color="#6ee2f5" offset="0"></stop><stop stop-color="#6454f0" offset="1"></stop></linearGradient><rect width="395.52" height="105.91199395974655" fill="url(#4760314a-78da-4d42-b66e-ed22601b5ef3)" mask="url(#11c833a1-e379-45ed-8708-83d5b935b508)" data-fill-palette-color="primary"></rect><mask id="dcc14823-260e-4d60-b9b3-330053bb1cd5"><g id="SvgjsG1729"><svg viewBox="0 0 395.52 105.91199395974655" height="105.91199395974655" width="395.52"><g><svg viewBox="0 0 573.9653398575712 153.695928418535" height="105.91199395974655" width="395.52"><g transform="matrix(1,0,0,1,178.44533985757116,50.63880758276148)"><svg viewBox="0 0 395.52 52.418313253012045" height="52.418313253012045" width="395.52"><g id="SvgjsG1728"><svg viewBox="0 0 395.52 52.418313253012045" height="52.418313253012045" width="395.52" id="SvgjsSvg1727"><g><svg viewBox="0 0 395.52 52.418313253012045" height="52.418313253012045" width="395.52"><g transform="matrix(1,0,0,1,0,0)"><svg width="395.52" viewBox="3.7 -36.25 280.63 36.85" height="52.418313253012045" data-palette-color="url(#4760314a-78da-4d42-b66e-ed22601b5ef3)"><g class="wordmark-text-0" data-fill-palette-color="primary" id="SvgjsG1726"></g></svg></g></svg></g></svg></g></svg></g><g><svg viewBox="0 0 153.695928418535 153.695928418535" height="153.695928418535" width="153.695928418535"><g><svg></svg></g><g id="SvgjsG1725"><svg viewBox="0 0 153.695928418535 153.695928418535" height="153.695928418535" width="153.695928418535"><g><path d="M0 76.848c0-42.442 34.406-76.848 76.848-76.848 42.442 0 76.848 34.406 76.848 76.848 0 42.442-34.406 76.848-76.848 76.848-42.442 0-76.848-34.406-76.848-76.848zM76.848 148.969c39.831 0 72.121-32.29 72.121-72.121 0-39.831-32.29-72.121-72.121-72.121-39.831 0-72.121 32.29-72.121 72.121 0 39.831 32.29 72.121 72.121 72.121z" fill="white" stroke="transparent"></path></g><g transform="matrix(1,0,0,1,40.67181193900772,36.56686111418708)"><svg viewBox="0 0 72.35230454051957 80.56220619016085" height="80.56220619016085" width="72.35230454051957"><g><svg xmlns="http://www.w3.org/2000/svg" xmlns:xlink="http://www.w3.org/1999/xlink" version="1.1" x="0" y="0" viewBox="7.871999999999998 3.5067500000000007 74.25500000000001 82.68080275591228" enable-background="new 0 0 90 90" xml:space="preserve" height="80.56220619016085" width="72.35230454051957" class="icon-cg-0" data-fill-palette-color="accent" id="SvgjsSvg1724"><g fill="white"><g fill="white"><path fill="white" d="M42.033 42.164c1.632 0.946 4.301 0.946 5.933-0.001l29.815-17.302c1.632-0.947 1.63-2.493-0.004-3.437L47.97 4.214c-1.633-0.943-4.306-0.943-5.94 0L12.214 21.429c-1.634 0.943-1.635 2.489-0.003 3.436L42.033 42.164z"></path></g><g fill="white"><path fill="white" d="M43.714 49.542c0-1.887-1.335-4.204-2.967-5.151l-29.908-17.35c-1.632-0.947-2.967-0.178-2.967 1.708v34.628c0 1.887 1.336 4.201 2.97 5.145l29.901 17.263c1.634 0.943 2.97 0.172 2.97-1.715V49.542z"></path></g><g fill="white"><path fill="white" d="M49.253 44.391c-1.632 0.947-2.967 3.265-2.967 5.151V84.07c0 1.887 1.337 2.658 2.971 1.715l29.899-17.263c1.634-0.943 2.971-3.258 2.971-5.145V28.742c0-1.886-1.335-2.655-2.967-1.708L49.253 44.391z"></path></g></g></svg></g></svg></g></svg></g></svg></g></svg></g><defs><mask></mask></defs><mask><g id="SvgjsG1723"><svg viewBox="0 0 395.52 105.91199395974655" height="105.91199395974655" width="395.52"><g><svg viewBox="0 0 573.9653398575712 153.695928418535" height="105.91199395974655" width="395.52"><g transform="matrix(1,0,0,1,178.44533985757116,50.63880758276148)"><svg viewBox="0 0 395.52 52.418313253012045" height="52.418313253012045" width="395.52"><g id="SvgjsG1722"><svg viewBox="0 0 395.52 52.418313253012045" height="52.418313253012045" width="395.52" id="SvgjsSvg1721"><g><svg viewBox="0 0 395.52 52.418313253012045" height="52.418313253012045" width="395.52"><g transform="matrix(1,0,0,1,0,0)"><svg width="395.52" viewBox="3.7 -36.25 280.63 36.85" height="52.418313253012045" data-palette-color="url(#4760314a-78da-4d42-b66e-ed22601b5ef3)"><g class="wordmark-text-0" data-fill-palette-color="primary" id="SvgjsG1720"><path d="M3.7 0L3.7-34.4 33.45-34.4 33.45-26.15 14.75-26.15 14.75-21.4 30.75-21.4 30.75-13.5 14.75-13.5 14.75-8.25 33.8-8.25 33.8 0 3.7 0ZM52.75-27Q59.25-27 63.27-24.23 67.3-21.45 67.3-15.75L67.3-15.75 57.65-15.75Q57.65-20.25 52.75-20.25L52.75-20.25Q47.85-20.25 47.85-14.6L47.85-14.6 47.85-11.75Q47.85-6.15 52.95-6.15L52.95-6.15Q58.05-6.15 58.05-10.75L58.05-10.75 67.3-10.75Q67.3-5 63.27-2.2 59.25 0.6 52.75 0.6L52.75 0.6Q45.8 0.6 41.85-2.9 37.9-6.4 37.9-13.2L37.9-13.2Q37.9-20 41.85-23.5 45.8-27 52.75-27L52.75-27ZM82.4-23.65Q84-25.25 86.15-26.13 88.3-27 90.65-27L90.65-27Q95.25-27 97.55-24.45 99.85-21.9 99.85-17.1L99.85-17.1 99.85 0 89.9 0 89.9-15.9Q89.9-17.6 89.02-18.63 88.15-19.65 86.55-19.65L86.55-19.65Q84.7-19.65 83.55-18.45 82.4-17.25 82.4-15.5L82.4-15.5 82.4 0 72.45 0 72.45-36.25 82.4-36.25 82.4-23.65ZM119.44-27Q126.39-27 130.37-23.48 134.34-19.95 134.34-13.2L134.34-13.2Q134.34-6.45 130.37-2.93 126.39 0.6 119.44 0.6L119.44 0.6Q112.49 0.6 108.54-2.9 104.59-6.4 104.59-13.2L104.59-13.2Q104.59-20 108.54-23.5 112.49-27 119.44-27L119.44-27ZM119.44-20.25Q114.54-20.25 114.54-14.6L114.54-14.6 114.54-11.75Q114.54-6.15 119.44-6.15L119.44-6.15Q124.39-6.15 124.39-11.75L124.39-11.75 124.39-14.6Q124.39-20.25 119.44-20.25L119.44-20.25ZM156.59 0L146.14 0 136.14-26.4 146.84-26.4 151.69-9.95 152.04-9.95 156.89-26.4 166.69-26.4 156.59 0ZM183.34-27Q190.59-27 194.41-23.6 198.24-20.2 198.24-13.2L198.24-13.2 198.24-11.5 178.44-11.5Q178.44-8.65 179.71-7.2 180.99-5.75 183.74-5.75L183.74-5.75Q186.24-5.75 187.41-6.8 188.59-7.85 188.59-9.6L188.59-9.6 198.24-9.6Q198.24-4.8 194.59-2.1 190.94 0.6 183.94 0.6L183.94 0.6Q176.59 0.6 172.54-2.83 168.49-6.25 168.49-13.2L168.49-13.2Q168.49-20 172.44-23.5 176.39-27 183.34-27L183.34-27ZM183.74-20.65Q179.04-20.65 178.49-16.2L178.49-16.2 188.19-16.2Q188.19-18.25 187.01-19.45 185.84-20.65 183.74-20.65L183.74-20.65ZM219.09-27.05Q220.24-27.05 221.14-26.78 222.04-26.5 222.04-26.45L222.04-26.45 222.04-18.1 218.84-18.1Q215.74-18.1 214.36-16.5 212.99-14.9 212.99-11.75L212.99-11.75 212.99 0 203.04 0 203.04-26.4 211.19-26.4 211.84-22.4Q212.74-24.7 214.69-25.88 216.64-27.05 219.09-27.05L219.09-27.05ZM237.78-27Q243.08-27 246.76-24.93 250.43-22.85 250.43-18.5L250.43-18.5 241.18-18.5Q241.18-19.95 239.88-20.55L239.88-20.55Q238.98-21.05 237.63-21.05L237.63-21.05Q234.03-21.05 234.03-19.35L234.03-19.35Q234.03-18.4 235.28-18 236.53-17.6 239.38-17.15L239.38-17.15Q242.88-16.65 245.23-15.98 247.58-15.3 249.33-13.58 251.08-11.85 251.08-8.75L251.08-8.75Q251.08-3.7 247.31-1.55 243.53 0.6 237.43 0.6L237.43 0.6Q233.93 0.6 230.83-0.38 227.73-1.35 225.78-3.4 223.83-5.45 223.83-8.6L223.83-8.6 233.08-8.6 233.08-8.4Q233.13-6.7 234.51-6.03 235.88-5.35 237.43-5.35L237.43-5.35Q241.58-5.35 241.58-7.3L241.58-7.3Q241.58-8.3 240.28-8.75 238.98-9.2 236.03-9.7L236.03-9.7Q232.48-10.3 230.21-11 227.93-11.7 226.23-13.38 224.53-15.05 224.53-18.05L224.53-18.05Q224.53-22.9 228.21-24.95 231.88-27 237.78-27L237.78-27ZM269.43-27Q276.68-27 280.51-23.6 284.33-20.2 284.33-13.2L284.33-13.2 284.33-11.5 264.53-11.5Q264.53-8.65 265.81-7.2 267.08-5.75 269.83-5.75L269.83-5.75Q272.33-5.75 273.51-6.8 274.68-7.85 274.68-9.6L274.68-9.6 284.33-9.6Q284.33-4.8 280.68-2.1 277.03 0.6 270.03 0.6L270.03 0.6Q262.68 0.6 258.63-2.83 254.58-6.25 254.58-13.2L254.58-13.2Q254.58-20 258.53-23.5 262.48-27 269.43-27L269.43-27ZM269.83-20.65Q265.13-20.65 264.58-16.2L264.58-16.2 274.28-16.2Q274.28-18.25 273.11-19.45 271.93-20.65 269.83-20.65L269.83-20.65Z" fill="black"></path></g></svg></g></svg></g></svg></g></svg></g><g><svg viewBox="0 0 153.695928418535 153.695928418535" height="153.695928418535" width="153.695928418535"><g><svg></svg></g><g id="SvgjsG1719"><svg viewBox="0 0 153.695928418535 153.695928418535" height="153.695928418535" width="153.695928418535"><g><path d="M0 76.848c0-42.442 34.406-76.848 76.848-76.848 42.442 0 76.848 34.406 76.848 76.848 0 42.442-34.406 76.848-76.848 76.848-42.442 0-76.848-34.406-76.848-76.848zM76.848 148.969c39.831 0 72.121-32.29 72.121-72.121 0-39.831-32.29-72.121-72.121-72.121-39.831 0-72.121 32.29-72.121 72.121 0 39.831 32.29 72.121 72.121 72.121z" fill="black" stroke="transparent"></path></g><g transform="matrix(1,0,0,1,40.67181193900772,36.56686111418708)"><svg viewBox="0 0 72.35230454051957 80.56220619016085" height="80.56220619016085" width="72.35230454051957"><g><svg xmlns="http://www.w3.org/2000/svg" xmlns:xlink="http://www.w3.org/1999/xlink" version="1.1" x="0" y="0" viewBox="7.871999999999998 3.5067500000000007 74.25500000000001 82.68080275591228" enable-background="new 0 0 90 90" xml:space="preserve" height="80.56220619016085" width="72.35230454051957" class="icon-cg-0" data-fill-palette-color="accent" id="SvgjsSvg1718"><g fill="black"><g fill="black"><path fill="black" d="M42.033 42.164c1.632 0.946 4.301 0.946 5.933-0.001l29.815-17.302c1.632-0.947 1.63-2.493-0.004-3.437L47.97 4.214c-1.633-0.943-4.306-0.943-5.94 0L12.214 21.429c-1.634 0.943-1.635 2.489-0.003 3.436L42.033 42.164z"></path></g><g fill="black"><path fill="black" d="M43.714 49.542c0-1.887-1.335-4.204-2.967-5.151l-29.908-17.35c-1.632-0.947-2.967-0.178-2.967 1.708v34.628c0 1.887 1.336 4.201 2.97 5.145l29.901 17.263c1.634 0.943 2.97 0.172 2.97-1.715V49.542z"></path></g><g fill="black"><path fill="black" d="M49.253 44.391c-1.632 0.947-2.967 3.265-2.967 5.151V84.07c0 1.887 1.337 2.658 2.971 1.715l29.899-17.263c1.634-0.943 2.971-3.258 2.971-5.145V28.742c0-1.886-1.335-2.655-2.967-1.708L49.253 44.391z"></path></g></g></svg></g></svg></g></svg></g></svg></g></svg></g><defs><mask></mask></defs></svg><rect width="395.52" height="105.91199395974655" fill="black" stroke="none" visibility="hidden"></rect></g></mask></svg><rect width="395.52" height="105.91199395974655" fill="black" stroke="none" visibility="hidden"></rect></g></mask><linearGradient x1="0" x2="1" y1="0.578" y2="0.595" id="276fa76e-9c0c-4e36-8c2c-9b69c000499a"><stop stop-color="#6ee2f5" offset="0"></stop><stop stop-color="#6454f0" offset="1"></stop></linearGradient><rect width="395.52" height="105.91199395974655" fill="url(#276fa76e-9c0c-4e36-8c2c-9b69c000499a)" mask="url(#dcc14823-260e-4d60-b9b3-330053bb1cd5)" data-fill-palette-color="accent"></rect></svg><rect width="395.52" height="105.91199395974655" fill="none" stroke="none" visibility="hidden"></rect></g></svg></g></svg>